<?xml version="1.0" encoding="utf-8"?>
<!-- Generator: Adobe Illustrator 19.0.0, SVG Export Plug-In . SVG Version: 6.00 Build 0)  -->
<svg version="1.1" id="图层_1" xmlns="http://www.w3.org/2000/svg" xmlns:xlink="http://www.w3.org/1999/xlink" x="0px" y="0px"
	 viewBox="0 0 690 188" style="enable-background:new 0 0 690 188;" xml:space="preserve">
<style type="text/css">
	.st0{fill:#00C800;}
	.st1{fill:#020202;}
</style>
<path id="XMLID_48_" class="st0" d="M82.5,117.9c-0.9,0.5-2,0.7-3.1,0.7c-2.6,0-4.8-1.4-6-3.5l-0.5-1L54.1,72.9
	c-0.2-0.4-0.3-1-0.3-1.5c0-1.9,1.5-3.4,3.5-3.4c0.8,0,1.5,0.3,2.1,0.7l22.2,15.8c1.6,1.1,3.6,1.7,5.6,1.7c1.2,0,2.4-0.2,3.5-0.6
	L195.2,39c-18.7-22.1-49.6-36.5-84.5-36.5C53.6,2.5,7.3,41.1,7.3,88.7c0,26,13.9,49.3,35.7,65.1c1.8,1.2,2.9,3.3,2.9,5.6
	c0,0.8-0.2,1.5-0.4,2.2c-1.7,6.5-4.5,16.9-4.7,17.4c-0.2,0.8-0.6,1.7-0.6,2.5c0,1.9,1.5,3.4,3.4,3.4c0.7,0,1.4-0.3,2-0.6l22.6-13.1
	c1.7-1,3.5-1.6,5.5-1.6c1.1,0,2.1,0.2,3,0.5c10.6,3,22,4.7,33.8,4.7c57.1,0,103.4-38.6,103.4-86.2c0-14.4-4.3-28-11.8-39.9
	L83.3,117.5L82.5,117.9z"/>
<g id="XMLID_2_">
	<path id="XMLID_43_" class="st1" d="M405.6,121.8h55V90.5h-55V121.8z M455.3,116.9h-44.4V95.4h44.4V116.9z"/>
	<g id="XMLID_3_">
		<rect id="XMLID_47_" x="404.1" y="54.5" class="st1" width="58" height="4.9"/>
		<rect id="XMLID_46_" x="404.1" y="70.9" class="st1" width="58" height="5.3"/>
		<path id="XMLID_42_" class="st1" d="M391.4,24.3c-5.2,18.2-12.5,34.3-22,48.2c0,0,0,0,0,0l2.9,5c3.4-5,6.8-10.6,10.2-16.9v61.5
			h5.3V49.6c3.4-7.2,6.2-14.7,8.6-22.5L391.4,24.3z"/>
		<path id="XMLID_41_" class="st1" d="M433.5,37.8l4.2-2.4c-0.8-1.9-4.3-9-5.4-11.5l-4.9,2.8c1.7,3.3,3.4,6.5,4.9,9.8
			c0.3,0.5,0.4,1,0.4,1.2h-34.3v5.3h69.8v-5.3H433.5z"/>
		<polygon id="XMLID_40_" class="st1" points="302.5,25.7 307.4,25.7 307.4,51.9 317.6,51.9 317.6,33.5 322.5,33.5 322.5,56.8 
			287,56.8 287,33.5 291.9,33.5 291.9,51.9 302.5,51.9 		"/>
		<rect id="XMLID_39_" x="288.7" y="67.4" class="st1" width="31.4" height="4.9"/>
		<path id="XMLID_38_" class="st1" d="M324.6,95.8l-8.1,7V82.9h-26.5v7.8c0.8,11-1.9,18.7-8.1,23.2l2.8,4.9
			c7.6-6.3,11.1-15,10.6-26.1v-4.9h16.3v11.8c-0.2,4-0.4,5.4-1.8,7.3l3.1,5.3c2.7-2.2,7.5-6.3,14.3-12.2L324.6,95.8z"/>
		<path id="XMLID_37_" class="st1" d="M279.6,24.7c-5.1,10.4-11.2,18.9-18.3,25.6l3,5.2c8.1-8.2,14.8-17.5,19.9-28.1L279.6,24.7z"/>
		<path id="XMLID_36_" class="st1" d="M278.9,51.5c-4.9,12.2-11.2,22.7-19.1,31.7l2.8,4.9c3.2-3.8,6.3-7.7,9.3-11.7v45.7h4.9V68.2
			c2.4-4.3,4.7-8.9,6.8-14L278.9,51.5z"/>
		<path id="XMLID_33_" class="st1" d="M360.9,48.6v-4.9h-23.3c2-6,4.4-13.1,5.1-19.2l-5.1,0c-3.4,16-8.5,29.5-15.2,40.5l3.1,5.4
			c0.5-1.1,1.3-2.6,2.3-4.6c1.1-1.9,1.9-3.4,2.5-4.5c1.6,14.4,4.5,25.9,8.6,34.3c-3.9,6.8-9.8,13.6-17.6,20.6l2.9,5.1
			c8.4-7.9,14.1-14.7,17.1-20.4c3.5,6.4,9.5,14,16.2,20.7l3-5.2c-7-6.7-13-14-16.3-20.4c6-10.9,9.7-26.7,11-47.4H360.9z M341.7,89.9
			c-3.5-9-6.1-21.1-7.8-36.3c0.5-1.6,1.2-3.3,2-4.9h14.3C349.2,66,346.3,79.8,341.7,89.9"/>
		<path id="XMLID_32_" d="M640.3,96.7c-3.6-7-10.9-19.3-16.9-28.2l4.4-2.2c6.1,8.9,13.5,20.8,17.1,27.4L640.3,96.7z"/>
		<path id="XMLID_29_" d="M574.3,121.2l1.4-4.6c-16.6-2.5-31.1-7.2-43.1-14.3c13-8.6,23.5-19.9,29.9-35l-3.5-2.3l-1.1,0.2h-28V45.8
			h42.5v-5.3H530V22.3h-5.2v18.2h-42.4v5.3h42.4v19.4H496v5.2c6.2,13,15.6,23.7,27,31.7c-12.8,7.2-27.8,11.9-43.2,14.7l1.5,4.9
			c0,0.1,0.1,0.2,0.1,0.3c16.5-3.3,32.6-8.6,46.4-16.6c12.9,8,28.4,13.4,46.4,16.2C574.1,121.5,574.2,121.3,574.3,121.2 M502.1,70.4
			h52.8c-6.1,12.2-15.5,21.6-27,29C516.7,91.7,507.9,82.1,502.1,70.4"/>
		<path id="XMLID_28_" d="M612.3,23.1c-6.4,17.3-16.7,34-27.8,45.2l2.2,5.6c0,0.1,0.1,0.2,0.2,0.3c4.6-4.6,9-10.1,13.1-16.2v63.9
			h5.2v-72c4.7-7.9,8.8-16.4,12.1-25.2L612.3,23.1z"/>
		<path id="XMLID_27_" d="M666.1,47.2V23.7h-5.2v23.6h-45.3v5.3h45.3v61.2c0,2.5-0.9,3.2-3.4,3.4c-2,0.1-4.1,0.6-9.7,0.6l0,4.6
			c7.7,0,10.3-0.1,13.2-0.9c3.5-0.9,5.1-2.6,5.1-7.8V52.5h14.6v-5.3H666.1z"/>
	</g>
</g>
<g id="XMLID_1_">
	<path id="XMLID_5_" d="M313.3,137.2h4.6l7.8,29.8h0.2l8.1-29.8h4.4l8.1,29.8h0.2l7.8-29.8h4.6l-10.2,35.6h-4.5l-8.1-29.6h-0.1
		l-8.1,29.6h-4.5L313.3,137.2z"/>
	<path id="XMLID_7_" d="M385.4,150.5c1.9,2.5,2.9,6,3,10.5H368c0.2,2.9,1,5.2,2.3,6.7c1.4,1.6,3.3,2.4,5.8,2.4
		c2.1,0,3.8-0.5,5.1-1.6c1.1-0.9,1.9-2.2,2.6-4h4c-0.6,2.5-1.8,4.5-3.5,6.1c-2.2,1.9-4.9,2.9-8.2,2.9c-3.7,0-6.6-1.2-8.9-3.6
		c-2.3-2.5-3.4-5.8-3.4-10c0-3.9,1.1-7,3.2-9.5c2.2-2.7,5.1-4,8.9-4C380.2,146.3,383.3,147.7,385.4,150.5z M370.6,151.9
		c-1.4,1.5-2.2,3.5-2.4,6h16.1c-0.5-5.5-3.2-8.3-8.1-8.3C373.8,149.7,372,150.4,370.6,151.9z"/>
	<path id="XMLID_10_" d="M421.8,139.7c2.7,2.1,4.3,4.9,4.8,8.5h-3.9c-0.5-2.6-1.8-4.5-3.8-6c-1.9-1.3-4.3-2-7.1-2
		c-4.1,0-7.3,1.4-9.6,4.3c-2.1,2.7-3.1,6.2-3.1,10.7c0,4.5,1,8,3.1,10.6c2.2,2.8,5.4,4.1,9.5,4.1c2.8,0,5.2-0.7,7.2-2.2
		c2.1-1.6,3.5-4,4.2-7h3.9c-0.8,4.2-2.7,7.4-5.6,9.7c-2.8,2.2-6,3.2-9.8,3.2c-5.5,0-9.7-1.8-12.7-5.5c-2.7-3.3-4-7.5-4-12.9
		c0-5.3,1.4-9.6,4.1-13c3-3.8,7.2-5.6,12.8-5.6C415.8,136.5,419.1,137.6,421.8,139.7z"/>
	<path id="XMLID_12_" d="M435.3,136.5h4v14.7c0.9-1.7,2.1-2.9,3.6-3.7c1.4-0.8,3-1.2,4.7-1.2c3.1,0,5.4,0.9,6.9,2.6
		c1.6,1.7,2.4,4.3,2.4,7.6v16.2h-4v-15.6c0-2.4-0.6-4.2-1.7-5.5c-1.2-1.3-2.9-1.9-5-1.9c-2,0-3.6,0.8-4.9,2.4c-1.3,1.6-2,3.6-2,6
		v14.7h-4V136.5z"/>
	<path id="XMLID_14_" d="M485.3,149.2c1.5,1.7,2.3,4.1,2.3,7v16.5h-3.7v-4.3c-1,1.4-2.4,2.6-4,3.5c-2,1-4.1,1.5-6.4,1.5
		c-2.6,0-4.6-0.7-6.2-2c-1.6-1.4-2.4-3.2-2.4-5.4c0-3.3,1.3-5.7,3.9-7.2c2.1-1.3,5-1.9,8.6-1.9l6.2,0v-0.8c0-4.3-2.2-6.5-6.7-6.5
		c-2.1,0-3.7,0.4-4.9,1.3c-1.3,0.9-2.1,2.2-2.4,4h-3.9c0.4-3,1.7-5.1,3.8-6.6c1.9-1.3,4.4-2,7.7-2
		C480.8,146.3,483.5,147.3,485.3,149.2z M483.6,160.1l-5.9,0c-5.8,0-8.7,2-8.7,5.9c0,1.3,0.5,2.3,1.4,3.1c1,0.8,2.3,1.1,3.9,1.1
		c2.6,0,4.8-0.8,6.6-2.4c1.8-1.6,2.6-3.4,2.6-5.5V160.1z"/>
	<path id="XMLID_17_" d="M503.7,138.7v8.3h6.4v3.3h-6.4v16.4c0,1,0.2,1.7,0.5,2c0.4,0.4,1,0.6,1.9,0.6h3.3v3.3h-3.9
		c-2.1,0-3.6-0.5-4.5-1.6c-0.8-1-1.2-2.4-1.2-4.4v-16.4h-5.2V147h5.2v-6.7L503.7,138.7z"/>
	<path id="XMLID_19_" d="M537.5,137.2h14.5c8.2,0,12.3,3.5,12.3,10.5c0,7-4.1,10.6-12.3,10.6h-10.4v14.5h-4.1V137.2z M541.6,140.8
		v13.9h10.2c2.8,0,4.9-0.6,6.4-1.7c1.4-1.2,2-2.9,2-5.3c0-2.4-0.7-4.2-2.1-5.2c-1.4-1.2-3.5-1.7-6.3-1.7H541.6z"/>
	<path id="XMLID_22_" d="M591.4,149.2c1.5,1.7,2.3,4.1,2.3,7v16.5h-3.7v-4.3c-1,1.4-2.4,2.6-4,3.5c-2,1-4.1,1.5-6.4,1.5
		c-2.6,0-4.6-0.7-6.2-2c-1.6-1.4-2.4-3.2-2.4-5.4c0-3.3,1.3-5.7,3.9-7.2c2.1-1.3,5-1.9,8.6-1.9l6.2,0v-0.8c0-4.3-2.2-6.5-6.7-6.5
		c-2.1,0-3.7,0.4-4.9,1.3c-1.3,0.9-2.1,2.2-2.4,4h-3.9c0.4-3,1.7-5.1,3.8-6.6c1.9-1.3,4.4-2,7.7-2
		C586.9,146.3,589.6,147.3,591.4,149.2z M589.7,160.1l-5.9,0c-5.8,0-8.7,2-8.7,5.9c0,1.3,0.5,2.3,1.4,3.1c1,0.8,2.3,1.1,3.9,1.1
		c2.6,0,4.8-0.8,6.6-2.4c1.8-1.6,2.6-3.4,2.6-5.5V160.1z"/>
	<path id="XMLID_25_" d="M600,147h4.3l7.9,20.3l7.6-20.3h4.4l-14.1,35.6h-4.3l4.4-10.5L600,147z"/>
</g>
</svg>
